<mxfile host="app.diagrams.net" modified="2023-10-09T16:22:14.799Z" agent="Mozilla/5.0 (Windows NT 10.0; Win64; x64) AppleWebKit/537.36 (KHTML, like Gecko) Chrome/117.0.0.0 Safari/537.36 Edg/117.0.2045.60" etag="aVhWEbS-V3_zhqAO7mA8" version="22.0.4" type="device">
  <diagram name="Page-1" id="Fc2cPDnWSHHYMkoNED6a">
    <mxGraphModel dx="-410" dy="-3681" grid="1" gridSize="10" guides="1" tooltips="1" connect="1" arrows="1" fold="1" page="1" pageScale="1" pageWidth="850" pageHeight="1100" math="0" shadow="0">
      <root>
        <mxCell id="0" />
        <mxCell id="1" parent="0" />
        <mxCell id="t-JOlY468ytZP-vVHZcr-2" value="Browser render cycle" style="shape=umlFrame;whiteSpace=wrap;html=1;pointerEvents=0;width=220;height=30;" vertex="1" parent="1">
          <mxGeometry x="2200" y="4720" width="850" height="240" as="geometry" />
        </mxCell>
        <mxCell id="t-JOlY468ytZP-vVHZcr-3" value="developer" style="text;html=1;strokeColor=none;fillColor=none;align=center;verticalAlign=middle;whiteSpace=wrap;rounded=0;" vertex="1" parent="1">
          <mxGeometry x="2210" y="4840" width="60" height="30" as="geometry" />
        </mxCell>
        <mxCell id="t-JOlY468ytZP-vVHZcr-4" value="" style="endArrow=none;html=1;rounded=0;" edge="1" parent="1">
          <mxGeometry width="50" height="50" relative="1" as="geometry">
            <mxPoint x="2280" y="4840" as="sourcePoint" />
            <mxPoint x="3040" y="4870" as="targetPoint" />
            <Array as="points">
              <mxPoint x="2330" y="4840" />
              <mxPoint x="2340" y="4870" />
              <mxPoint x="2420" y="4870" />
              <mxPoint x="2430" y="4840" />
              <mxPoint x="2570" y="4840" />
              <mxPoint x="2580" y="4870" />
              <mxPoint x="2910" y="4870" />
              <mxPoint x="2920" y="4840" />
              <mxPoint x="3030" y="4840" />
            </Array>
          </mxGeometry>
        </mxCell>
        <mxCell id="t-JOlY468ytZP-vVHZcr-5" value="" style="endArrow=none;html=1;rounded=0;" edge="1" parent="1">
          <mxGeometry width="50" height="50" relative="1" as="geometry">
            <mxPoint x="2280" y="4870" as="sourcePoint" />
            <mxPoint x="3040" y="4840" as="targetPoint" />
            <Array as="points">
              <mxPoint x="2330" y="4870" />
              <mxPoint x="2340" y="4840" />
              <mxPoint x="2420" y="4840" />
              <mxPoint x="2430" y="4870" />
              <mxPoint x="2570" y="4870" />
              <mxPoint x="2580" y="4840" />
              <mxPoint x="2910" y="4840" />
              <mxPoint x="2920" y="4870" />
              <mxPoint x="3030" y="4870" />
            </Array>
          </mxGeometry>
        </mxCell>
        <mxCell id="t-JOlY468ytZP-vVHZcr-6" value="DOM Tree" style="text;html=1;strokeColor=none;fillColor=none;align=center;verticalAlign=middle;whiteSpace=wrap;rounded=0;" vertex="1" parent="1">
          <mxGeometry x="2269" y="4839" width="60" height="30" as="geometry" />
        </mxCell>
        <mxCell id="t-JOlY468ytZP-vVHZcr-7" value="(CSSOM)" style="text;html=1;strokeColor=none;fillColor=none;align=center;verticalAlign=middle;whiteSpace=wrap;rounded=0;" vertex="1" parent="1">
          <mxGeometry x="2340" y="4841" width="90" height="30" as="geometry" />
        </mxCell>
        <mxCell id="t-JOlY468ytZP-vVHZcr-8" value="Render tree" style="text;html=1;strokeColor=none;fillColor=none;align=center;verticalAlign=middle;whiteSpace=wrap;rounded=0;" vertex="1" parent="1">
          <mxGeometry x="2460" y="4841" width="74.5" height="30" as="geometry" />
        </mxCell>
        <mxCell id="t-JOlY468ytZP-vVHZcr-9" value="Layout" style="text;html=1;strokeColor=none;fillColor=none;align=center;verticalAlign=middle;whiteSpace=wrap;rounded=0;" vertex="1" parent="1">
          <mxGeometry x="2690" y="4841" width="60" height="30" as="geometry" />
        </mxCell>
        <mxCell id="t-JOlY468ytZP-vVHZcr-10" value="Paint &amp;amp; Composition" style="text;html=1;strokeColor=none;fillColor=none;align=center;verticalAlign=middle;whiteSpace=wrap;rounded=0;" vertex="1" parent="1">
          <mxGeometry x="2930" y="4841" width="90" height="30" as="geometry" />
        </mxCell>
        <mxCell id="t-JOlY468ytZP-vVHZcr-11" value="" style="endArrow=none;html=1;rounded=0;" edge="1" parent="1">
          <mxGeometry width="50" height="50" relative="1" as="geometry">
            <mxPoint x="2580" y="4830" as="sourcePoint" />
            <mxPoint x="2580" y="4780" as="targetPoint" />
          </mxGeometry>
        </mxCell>
        <mxCell id="t-JOlY468ytZP-vVHZcr-12" value="" style="endArrow=none;html=1;rounded=0;" edge="1" parent="1">
          <mxGeometry width="50" height="50" relative="1" as="geometry">
            <mxPoint x="2910" y="4830" as="sourcePoint" />
            <mxPoint x="2910" y="4780" as="targetPoint" />
          </mxGeometry>
        </mxCell>
        <mxCell id="t-JOlY468ytZP-vVHZcr-13" value="" style="endArrow=open;html=1;rounded=0;startArrow=open;startFill=0;endFill=0;" edge="1" parent="1">
          <mxGeometry width="50" height="50" relative="1" as="geometry">
            <mxPoint x="2580" y="4820" as="sourcePoint" />
            <mxPoint x="2910" y="4820" as="targetPoint" />
          </mxGeometry>
        </mxCell>
      </root>
    </mxGraphModel>
  </diagram>
</mxfile>
